<svg xmlns="http://www.w3.org/2000/svg" xmlns:xlink="http://www.w3.org/1999/xlink" width="500" zoomAndPan="magnify" viewBox="0 0 375 374.999991" height="500" preserveAspectRatio="xMidYMid meet" version="1.0"><defs><clipPath id="df357ae713"><path d="M 187.5 0 C 83.945312 0 0 83.945312 0 187.5 C 0 291.054688 83.945312 375 187.5 375 C 291.054688 375 375 291.054688 375 187.5 C 375 83.945312 291.054688 0 187.5 0 Z M 187.5 0 " clip-rule="nonzero"/></clipPath><clipPath id="4f7d4caeab"><path d="M 0 0 L 375 0 L 375 375 L 0 375 Z M 0 0 " clip-rule="nonzero"/></clipPath><clipPath id="243260bba9"><path d="M 187.5 0 C 83.945312 0 0 83.945312 0 187.5 C 0 291.054688 83.945312 375 187.5 375 C 291.054688 375 375 291.054688 375 187.5 C 375 83.945312 291.054688 0 187.5 0 Z M 187.5 0 " clip-rule="nonzero"/></clipPath><clipPath id="fcc8aa5f15"><rect x="0" width="375" y="0" height="375"/></clipPath></defs><g clip-path="url(#df357ae713)"><g transform="matrix(1, 0, 0, 1, 0, 0)"><g clip-path="url(#fcc8aa5f15)"><g clip-path="url(#4f7d4caeab)"><g clip-path="url(#243260bba9)"><rect x="-82.5" width="540" fill="#c58b15" height="539.999987" y="-82.499998" fill-opacity="1"/></g></g></g></g></g><path fill="#472014" d="M 222.347656 283.175781 C 222.347656 283.175781 237.222656 308.234375 254.078125 301.867188 C 270.9375 295.5 241.933594 252.582031 223.96875 254.757812 C 206.007812 256.933594 209.257812 272.46875 212.730469 278.132812 " fill-opacity="1" fill-rule="nonzero"/><path fill="#472014" d="M 150.136719 327.574219 C 150.136719 327.574219 161.84375 321.324219 169.800781 334.300781 C 177.753906 347.273438 172.292969 375 153.695312 373.257812 C 135.101562 371.519531 141.273438 342.765625 145.546875 338.332031 " fill-opacity="1" fill-rule="nonzero"/><path fill="#ffb481" d="M 169.800781 302.183594 C 169.640625 302.578125 187.289062 324.457031 204.855469 316.5625 C 222.425781 308.667969 225.15625 284.976562 225.15625 284.976562 C 232 291.738281 240.507812 291.859375 237.660156 281.496094 C 234.808594 271.132812 220.488281 255.273438 201.574219 280.070312 " fill-opacity="1" fill-rule="nonzero"/><path fill="#ffb481" d="M 109.460938 299.375 C 109.816406 300.441406 119.074219 321.722656 131.816406 332.757812 C 144.558594 343.792969 146.296875 345.730469 146.296875 345.730469 C 146.296875 345.730469 152.964844 364.101562 159.375 357.515625 C 165.785156 350.929688 169.050781 332.675781 156.941406 326.824219 C 144.835938 320.96875 151.878906 314.085938 150.175781 310.527344 C 148.316406 306.570312 135.695312 297.199219 135.695312 297.199219 " fill-opacity="1" fill-rule="nonzero"/><path fill="#844657" d="M 199.792969 243.722656 C 199.792969 243.722656 206.886719 262.707031 205.90625 274.039062 C 216.203125 279.261719 207.3125 305.78125 174.074219 313.929688 C 139.886719 322.15625 103.523438 309.578125 89.042969 297.238281 C 97.710938 267.808594 102.972656 242.714844 109.023438 239.667969 C 115.078125 236.625 135.695312 245.304688 140.125 247.519531 " fill-opacity="1" fill-rule="nonzero"/><path fill="#ffb481" d="M 91.535156 60.550781 L 89.140625 47.875 C 89.140625 47.875 78.003906 46.925781 74.085938 34.707031 C 70.167969 22.484375 78.152344 15.214844 82.484375 16.34375 C 75.214844 12.042969 81.773438 7.472656 88.480469 9.636719 C 88.507812 3.050781 99.726562 -0.00390625 102.8125 7.234375 C 110.644531 4.507812 115.660156 10.144531 112.339844 16.9375 C 118.628906 22.1875 119.746094 35.28125 107.878906 40.144531 C 109.855469 45.445312 107.363281 45.207031 107.265625 50.941406 C 107.203125 56.65625 102.929688 60.671875 102.929688 61.148438 " fill-opacity="1" fill-rule="nonzero"/><path fill="#ffb481" d="M 275.921875 116.441406 C 275.921875 116.441406 282.261719 111.863281 281.371094 102.726562 C 280.480469 93.589844 277.125 82.878906 286.089844 79.320312 C 295.050781 75.761719 295.644531 81.851562 295.625 81.734375 C 295.605469 81.617188 300.847656 75.03125 308.324219 77.265625 C 315.804688 79.5 311.53125 85.964844 311.847656 85.789062 C 312.164062 85.492188 321.5 90.257812 317.980469 97.8125 C 326.527344 111.933594 315.390625 117.746094 306.128906 119.527344 C 296.871094 121.304688 294.398438 118.5 288.699219 125.914062 C 283.003906 133.332031 279.324219 130.285156 278.730469 130.699219 " fill-opacity="1" fill-rule="nonzero"/><path fill="#ad6f9a" d="M 139.730469 115.097656 C 137.832031 107.421875 111.003906 56.953125 109.421875 50.148438 C 90.109375 53.394531 85.125 60.949219 85.125 60.949219 C 85.125 60.949219 108.628906 171.222656 121.6875 180.003906 C 107.976562 206.582031 105.382812 241.746094 105.066406 241.585938 C 104.75 241.429688 145.902344 270.421875 204.539062 246.453125 C 200.859375 227.464844 205.371094 207.472656 205.371094 207.472656 C 205.371094 207.472656 271.132812 161.964844 292.144531 128.980469 C 278.730469 121.265625 277.128906 108.808594 277.128906 108.808594 C 277.128906 108.808594 257.183594 133.546875 242.585938 140.253906 C 227.984375 146.957031 212.019531 137.167969 207.984375 140.488281 C 203.949219 143.8125 178.78125 136.21875 175.457031 140.371094 " fill-opacity="1" fill-rule="nonzero"/><path fill="#efe5db" d="M 144.082031 103.863281 C 143.765625 101.488281 130.390625 71.585938 150.175781 50.230469 C 169.960938 28.871094 204.460938 40.105469 207.945312 45.324219 C 217.757812 25.785156 243.355469 24.5 254.039062 41.46875 C 264.722656 58.4375 263.140625 70.953125 254.671875 79.261719 C 261.953125 89.542969 260.804688 121.582031 238.964844 134.953125 C 217.125 148.320312 204.597656 134.230469 185.695312 132.136719 C 166.792969 130.046875 151.363281 106.746094 151.839844 110.800781 " fill-opacity="1" fill-rule="nonzero"/><path fill="#ffb481" d="M 202.878906 60.988281 C 202.878906 60.988281 177.359375 49.773438 156.230469 66.269531 C 135.101562 82.761719 124.832031 117.824219 126.257812 137.167969 C 127.683594 156.507812 138.058594 165.527344 148.332031 167.070312 C 140.976562 183.085938 149.460938 185.847656 162.105469 186.292969 C 174.746094 186.738281 179.257812 172.765625 179.257812 172.765625 C 179.257812 172.765625 213.800781 172.40625 217.359375 154.847656 C 233.980469 154.054688 246.125 142.703125 245.214844 132.65625 C 244.304688 122.609375 232.316406 126.210938 228.953125 129.808594 C 224.601562 123.796875 229.152344 91.878906 229.707031 88.949219 " fill-opacity="1" fill-rule="nonzero"/><path fill="#452114" d="M 153.339844 123.007812 C 153.339844 123.007812 144.242188 130.738281 150.570312 130.679688 C 149.839844 135.03125 150.984375 157.101562 160.363281 161.058594 C 169.742188 165.011719 179.632812 160.007812 182.957031 152.808594 C 186.28125 145.609375 188.890625 138.332031 188.851562 138.433594 C 188.8125 138.53125 191.578125 142.691406 193.09375 140.082031 C 194.605469 137.46875 189.851562 131.691406 189.851562 131.691406 C 189.851562 131.691406 179.632812 135.566406 169.34375 134.851562 C 159.058594 134.140625 153.339844 123.007812 153.339844 123.007812 Z M 153.339844 123.007812 " fill-opacity="1" fill-rule="nonzero"/><path fill="#db5f44" d="M 158.1875 153.226562 C 158.246094 153.226562 169.246094 142.605469 180.898438 149.46875 C 178.050781 157.042969 172.667969 160.261719 165.753906 159.847656 C 158.839844 159.429688 158.007812 153.738281 158.046875 153.71875 " fill-opacity="1" fill-rule="nonzero"/><path fill="#452113" d="M 189.289062 112.367188 C 189.289062 112.367188 207.585938 110.390625 204.421875 121.304688 C 209.765625 110.667969 198.84375 100.816406 189.289062 112.367188 Z M 189.289062 112.367188 " fill-opacity="1" fill-rule="nonzero"/><path fill="#452113" d="M 154.597656 76.589844 C 154.597656 76.589844 166.585938 70.242188 176.082031 76.441406 C 169.878906 66.117188 157.179688 68.195312 154.390625 76.589844 " fill-opacity="1" fill-rule="nonzero"/><path fill="#452113" d="M 147.476562 104.507812 C 147.476562 104.507812 148.277344 95.875 156.230469 95.417969 C 164.183594 94.964844 164.359375 103.089844 163.292969 106.136719 C 160.757812 98.246094 152.847656 97.574219 147.582031 104.574219 " fill-opacity="1" fill-rule="nonzero"/><path fill="#452113" d="M 195.28125 86.558594 C 195.28125 86.558594 213.5625 79.558594 219.023438 95.992188 C 217.65625 81.632812 202.9375 73.742188 195.28125 86.558594 Z M 195.28125 86.558594 " fill-opacity="1" fill-rule="nonzero"/><path stroke-linecap="butt" transform="matrix(0.0865069, 0, 0, 0.0864753, -18.387467, -28.407123)" fill="none" stroke-linejoin="miter" d="M 2196.90766 1488.423467 C 2196.90766 1494.476498 2196.591572 1500.52953 2196.004552 1506.582561 C 2195.417532 1512.635593 2194.514425 1518.643453 2193.340385 1524.606141 C 2192.166346 1530.568828 2190.676219 1536.441173 2188.915159 1542.268345 C 2187.1541 1548.050345 2185.122108 1553.787174 2182.774029 1559.388486 C 2180.471105 1564.989799 2177.852094 1570.500768 2175.007306 1575.83105 C 2172.162517 1581.206503 2169.046797 1586.401269 2165.660144 1591.460519 C 2162.273492 1596.51977 2158.661062 1601.353161 2154.822856 1606.051036 C 2150.939494 1610.748911 2146.875511 1615.266099 2142.585751 1619.557427 C 2138.295991 1623.848756 2133.780454 1627.914225 2129.084296 1631.799006 C 2124.388137 1635.638616 2119.511357 1639.252366 2114.499111 1642.640257 C 2109.44171 1645.982976 2104.248843 1649.099835 2098.875354 1651.990835 C 2093.501865 1654.836664 2088.038065 1657.456633 2082.393644 1659.760398 C 2076.794378 1662.064164 2071.104802 1664.14207 2065.279759 1665.903774 C 2059.454717 1667.665477 2053.584519 1669.110977 2047.62401 1670.330618 C 2041.663501 1671.505087 2035.657837 1672.408524 2029.607018 1672.995758 C 2023.556198 1673.582993 2017.505379 1673.899196 2011.45456 1673.899196 C 2005.358585 1673.899196 1999.307765 1673.582993 1993.256946 1672.995758 C 1987.206127 1672.408524 1981.200462 1671.505087 1975.239954 1670.330618 C 1969.279445 1669.110977 1963.409247 1667.665477 1957.584205 1665.903774 C 1951.804317 1664.14207 1946.069585 1662.064164 1940.47032 1659.760398 C 1934.871054 1657.456633 1929.362099 1654.836664 1923.98861 1651.990835 C 1918.660277 1649.099835 1913.467409 1645.982976 1908.410008 1642.640257 C 1903.352607 1639.252366 1898.475827 1635.638616 1893.779668 1631.799006 C 1889.08351 1627.914225 1884.567973 1623.848756 1880.278213 1619.557427 C 1875.988453 1615.266099 1871.92447 1610.748911 1868.086263 1606.051036 C 1864.202902 1601.353161 1860.590472 1596.51977 1857.248975 1591.460519 C 1853.862322 1586.401269 1850.746602 1581.206503 1847.856658 1575.83105 C 1845.01187 1570.500768 1842.392859 1564.989799 1840.089935 1559.388486 C 1837.741856 1553.787174 1835.709864 1548.050345 1833.948805 1542.268345 C 1832.187745 1536.441173 1830.697618 1530.568828 1829.523578 1524.606141 C 1828.349539 1518.643453 1827.446431 1512.635593 1826.859412 1506.582561 C 1826.272392 1500.52953 1825.956304 1494.476498 1825.956304 1488.423467 C 1825.956304 1482.325263 1826.272392 1476.272232 1826.859412 1470.2192 C 1827.446431 1464.166168 1828.349539 1458.203481 1829.523578 1452.240793 C 1830.697618 1446.278105 1832.187745 1440.405761 1833.948805 1434.578589 C 1835.709864 1428.751416 1837.741856 1423.05976 1840.089935 1417.413275 C 1842.392859 1411.811962 1845.01187 1406.346165 1847.856658 1400.970712 C 1850.746602 1395.64043 1853.862322 1390.400492 1857.248975 1385.386414 C 1860.590472 1380.327164 1864.202902 1375.448601 1868.086263 1370.750726 C 1871.92447 1366.05285 1875.988453 1361.535663 1880.278213 1357.244334 C 1884.567973 1352.953006 1889.08351 1348.887537 1893.779668 1345.047927 C 1898.475827 1341.208318 1903.352607 1337.594567 1908.410008 1334.206677 C 1913.467409 1330.818786 1918.660277 1327.701926 1923.98861 1324.856098 C 1929.362099 1321.965098 1934.871054 1319.390301 1940.47032 1317.041363 C 1946.069585 1314.737597 1951.804317 1312.704863 1957.584205 1310.94316 C 1963.409247 1309.181456 1969.279445 1307.690784 1975.239954 1306.516316 C 1981.200462 1305.296675 1987.206127 1304.438409 1993.256946 1303.851175 C 1999.307765 1303.218769 2005.358585 1302.947737 2011.45456 1302.947737 C 2017.505379 1302.947737 2023.556198 1303.218769 2029.607018 1303.851175 C 2035.657837 1304.438409 2041.663501 1305.296675 2047.62401 1306.516316 C 2053.584519 1307.690784 2059.454717 1309.181456 2065.279759 1310.94316 C 2071.104802 1312.704863 2076.794378 1314.737597 2082.393644 1317.041363 C 2088.038065 1319.390301 2093.501865 1321.965098 2098.875354 1324.856098 C 2104.248843 1327.701926 2109.44171 1330.818786 2114.499111 1334.206677 C 2119.511357 1337.594567 2124.388137 1341.208318 2129.084296 1345.047927 C 2133.780454 1348.887537 2138.295991 1352.953006 2142.585751 1357.244334 C 2146.875511 1361.535663 2150.939494 1366.05285 2154.822856 1370.750726 C 2158.661062 1375.448601 2162.273492 1380.327164 2165.660144 1385.386414 C 2169.046797 1390.400492 2172.162517 1395.64043 2175.007306 1400.970712 C 2177.852094 1406.346165 2180.471105 1411.811962 2182.774029 1417.413275 C 2185.122108 1423.05976 2187.1541 1428.751416 2188.915159 1434.578589 C 2190.676219 1440.405761 2192.166346 1446.278105 2193.340385 1452.240793 C 2194.514425 1458.203481 2195.417532 1464.166168 2196.004552 1470.2192 C 2196.591572 1476.272232 2196.90766 1482.325263 2196.90766 1488.423467 Z M 2196.90766 1488.423467 " stroke="#231f20" stroke-width="53.743" stroke-opacity="1" stroke-miterlimit="10"/><path stroke-linecap="butt" transform="matrix(0.0865069, 0, 0, 0.0864753, -18.387467, -28.407123)" fill="none" stroke-linejoin="miter" d="M 2715.246139 1633.33485 C 2715.246139 1639.433053 2714.930051 1645.486085 2714.343031 1651.539117 C 2713.756012 1657.592148 2712.852904 1663.554836 2711.678865 1669.517524 C 2710.504825 1675.480212 2709.014698 1681.397728 2707.253638 1687.179728 C 2705.492579 1693.0069 2703.460587 1698.698557 2701.112508 1704.345042 C 2698.809584 1709.946354 2696.190573 1715.412152 2693.345785 1720.787605 C 2690.500997 1726.117887 2687.385276 1731.357824 2683.998624 1736.371903 C 2680.611971 1741.431153 2676.999541 1746.309716 2673.161335 1751.007591 C 2669.277973 1755.705466 2665.21399 1760.222654 2660.92423 1764.513982 C 2656.63447 1768.805311 2652.118933 1772.87078 2647.422775 1776.710389 C 2642.726616 1780.595171 2637.849837 1784.208921 2632.837591 1787.55164 C 2627.780189 1790.939531 2622.587322 1794.05639 2617.213833 1796.902219 C 2611.840344 1799.793219 2606.376544 1802.368016 2600.777279 1804.716954 C 2595.132858 1807.020719 2589.443281 1809.053454 2583.618239 1810.815157 C 2577.793196 1812.57686 2571.922998 1814.067532 2565.962489 1815.242001 C 2560.001981 1816.461642 2553.996317 1817.319907 2547.945497 1817.907142 C 2541.894678 1818.539548 2535.843858 1818.810579 2529.793039 1818.810579 C 2523.697064 1818.810579 2517.646245 1818.539548 2511.595425 1817.907142 C 2505.544606 1817.319907 2499.538942 1816.461642 2493.578433 1815.242001 C 2487.617924 1814.067532 2481.747726 1812.57686 2475.922684 1810.815157 C 2470.142797 1809.053454 2464.408065 1807.020719 2458.808799 1804.716954 C 2453.209533 1802.368016 2447.700578 1799.793219 2442.372245 1796.902219 C 2436.998756 1794.05639 2431.805888 1790.939531 2426.748487 1787.55164 C 2421.691086 1784.208921 2416.814306 1780.595171 2412.118148 1776.710389 C 2407.421989 1772.87078 2402.906452 1768.805311 2398.616692 1764.513982 C 2394.326932 1760.222654 2390.262949 1755.705466 2386.424743 1751.007591 C 2382.541381 1746.309716 2378.928951 1741.431153 2375.587454 1736.371903 C 2372.200801 1731.357824 2369.085081 1726.117887 2366.195137 1720.787605 C 2363.350349 1715.412152 2360.731338 1709.946354 2358.428414 1704.345042 C 2356.12549 1698.698557 2354.048343 1693.0069 2352.287284 1687.179728 C 2350.526224 1681.397728 2349.081253 1675.480212 2347.862058 1669.517524 C 2346.688018 1663.554836 2345.784911 1657.592148 2345.197891 1651.539117 C 2344.610871 1645.486085 2344.294784 1639.433053 2344.294784 1633.33485 C 2344.294784 1627.281818 2344.610871 1621.228787 2345.197891 1615.175755 C 2345.784911 1609.122724 2346.688018 1603.114864 2347.862058 1597.152176 C 2349.081253 1591.189488 2350.526224 1585.317144 2352.287284 1579.489972 C 2354.048343 1573.707972 2356.12549 1567.971143 2358.428414 1562.36983 C 2360.731338 1556.768517 2363.350349 1551.257548 2366.195137 1545.927267 C 2369.085081 1540.551813 2372.200801 1535.357047 2375.587454 1530.297797 C 2378.928951 1525.238547 2382.541381 1520.405156 2386.424743 1515.707281 C 2390.262949 1511.009405 2394.326932 1506.492218 2398.616692 1502.200889 C 2402.906452 1497.909561 2407.421989 1493.844092 2412.118148 1489.95931 C 2416.814306 1486.119701 2421.691086 1482.505951 2426.748487 1479.11806 C 2431.805888 1475.775341 2436.998756 1472.658481 2442.372245 1469.767481 C 2447.700578 1466.921653 2453.209533 1464.301684 2458.808799 1461.997918 C 2464.408065 1459.694153 2470.142797 1457.616246 2475.922684 1455.854543 C 2481.747726 1454.09284 2487.617924 1452.64734 2493.578433 1451.427699 C 2499.538942 1450.25323 2505.544606 1449.349793 2511.595425 1448.762558 C 2517.646245 1448.175324 2523.697064 1447.859121 2529.793039 1447.859121 C 2535.843858 1447.859121 2541.894678 1448.175324 2547.945497 1448.762558 C 2553.996317 1449.349793 2560.001981 1450.25323 2565.962489 1451.427699 C 2571.922998 1452.64734 2577.793196 1454.09284 2583.618239 1455.854543 C 2589.443281 1457.616246 2595.132858 1459.694153 2600.777279 1461.997918 C 2606.376544 1464.301684 2611.840344 1466.921653 2617.213833 1469.767481 C 2622.587322 1472.658481 2627.780189 1475.775341 2632.837591 1479.11806 C 2637.849837 1482.505951 2642.726616 1486.119701 2647.422775 1489.95931 C 2652.118933 1493.844092 2656.63447 1497.909561 2660.92423 1502.200889 C 2665.21399 1506.492218 2669.277973 1511.009405 2673.161335 1515.707281 C 2676.999541 1520.405156 2680.611971 1525.238547 2683.998624 1530.297797 C 2687.385276 1535.357047 2690.500997 1540.551813 2693.345785 1545.927267 C 2696.190573 1551.257548 2698.809584 1556.768517 2701.112508 1562.36983 C 2703.460587 1567.971143 2705.492579 1573.707972 2707.253638 1579.489972 C 2709.014698 1585.317144 2710.504825 1591.189488 2711.678865 1597.152176 C 2712.852904 1603.114864 2713.756012 1609.122724 2714.343031 1615.175755 C 2714.930051 1621.228787 2715.246139 1627.281818 2715.246139 1633.33485 Z M 2715.246139 1633.33485 " stroke="#231f20" stroke-width="53.743" stroke-opacity="1" stroke-miterlimit="10"/><path stroke-linecap="butt" transform="matrix(0.0865069, 0, 0, 0.0864753, -18.387467, -28.407123)" fill="none" stroke-linejoin="miter" d="M 2190.631063 1536.350829 C 2190.631063 1536.350829 2286.541067 1480.608732 2346.913795 1589.021238 " stroke="#231f20" stroke-width="53.743" stroke-opacity="1" stroke-miterlimit="10"/><path stroke-linecap="butt" transform="matrix(0.0865069, 0, 0, 0.0864753, -18.387467, -28.407123)" fill="none" stroke-linejoin="miter" d="M 2704.589472 1685.101822 C 2704.589472 1685.101822 2842.719745 1774.722827 2843.216454 1773.36767 " stroke="#231f20" stroke-width="53.743" stroke-opacity="1" stroke-miterlimit="10"/><path fill="#231f20" d="M 169.472656 124.945312 C 166.828125 125.304688 164.027344 124.550781 161.957031 122.851562 C 160.910156 121.980469 160.058594 120.875 159.453125 119.660156 C 159.453125 119.660156 159.226562 119.203125 159.226562 119.203125 L 159.035156 118.734375 C 158.914062 118.472656 158.789062 118.054688 158.691406 117.78125 C 157.441406 113.921875 159.265625 110.964844 162.796875 109.332031 C 165.09375 108.28125 168.019531 107.6875 170.53125 107.859375 C 170.207031 107.875 169.882812 107.914062 169.558594 107.960938 C 167.328125 108.308594 165.121094 108.9375 163.121094 109.988281 C 160.296875 111.476562 158.589844 113.789062 159.4375 117.0625 C 159.953125 119.027344 160.925781 120.914062 162.433594 122.304688 C 164.3125 124.03125 166.929688 124.914062 169.472656 124.945312 Z M 169.472656 124.945312 " fill-opacity="1" fill-rule="nonzero"/><path fill="#231f20" d="M 148.484375 167.246094 C 157.339844 171.152344 168.761719 175.402344 178.457031 172.914062 C 178.15625 173.039062 177.851562 173.164062 177.542969 173.273438 C 177.429688 173.316406 177.195312 173.394531 177.078125 173.429688 C 176.648438 173.574219 176.09375 173.722656 175.652344 173.824219 C 166.902344 175.789062 155.886719 171.910156 148.484375 167.246094 Z M 148.484375 167.246094 " fill-opacity="1" fill-rule="nonzero"/><path fill="#231f20" d="M 82.753906 16.175781 C 87.921875 17.257812 95.359375 20.664062 95.085938 26.882812 C 94.949219 29.671875 93.683594 32.414062 91.542969 34.226562 C 88.964844 36.457031 85.242188 36.804688 83.050781 33.871094 C 82.582031 33.253906 82.230469 32.558594 81.960938 31.835938 C 82.496094 32.84375 83.167969 33.773438 84.074219 34.453125 C 86.289062 36.128906 89.09375 35.367188 91.003906 33.609375 C 93.125 31.683594 94.382812 28.632812 94.132812 25.769531 C 93.5625 20.75 87.011719 17.660156 82.753906 16.175781 Z M 82.753906 16.175781 " fill-opacity="1" fill-rule="nonzero"/><path fill="#231f20" d="M 98.953125 40.667969 C 98.265625 38.148438 97.933594 35.375 98.8125 32.851562 C 99.839844 29.980469 102.375 28.714844 105.292969 28.621094 C 105.292969 28.621094 105.335938 29.515625 105.335938 29.515625 C 103.796875 29.625 102.207031 29.539062 100.757812 28.929688 C 99.1875 28.285156 98.003906 26.878906 98.066406 25.117188 C 98.226562 21.886719 101.445312 19.730469 104.265625 18.871094 C 106.167969 18.28125 108.191406 18.101562 110.171875 18.210938 C 109.1875 18.277344 108.207031 18.390625 107.246094 18.574219 C 104.46875 19.121094 101.554688 20.289062 99.847656 22.632812 C 98.949219 23.867188 98.527344 25.636719 99.546875 26.917969 C 99.953125 27.441406 100.503906 27.816406 101.125 28.078125 C 102.425781 28.621094 103.863281 28.699219 105.277344 28.621094 C 105.277344 28.621094 105.320312 29.515625 105.320312 29.515625 C 103.789062 29.550781 102.214844 29.898438 101.011719 30.878906 C 98.289062 33.136719 98.480469 37.476562 98.953125 40.667969 Z M 98.953125 40.667969 " fill-opacity="1" fill-rule="nonzero"/><path fill="#231f20" d="M 88.867188 10.023438 C 88.921875 10.042969 88.988281 10.03125 89.046875 10.03125 C 89.046875 10.03125 89.234375 10.027344 89.234375 10.027344 L 89.605469 10.011719 C 94.480469 9.867188 98.191406 12.46875 98.621094 17.511719 C 98.78125 19.59375 98.726562 24.796875 95.796875 24.777344 C 95.078125 24.75 94.253906 24.339844 93.800781 23.789062 C 93.800781 23.785156 93.792969 23.773438 93.800781 23.769531 C 93.792969 23.78125 93.8125 23.792969 93.820312 23.804688 C 94.1875 24.089844 94.648438 24.273438 95.09375 24.375 C 96.757812 24.738281 97.386719 23.292969 97.621094 21.902344 C 97.777344 20.972656 97.804688 20.003906 97.789062 19.035156 C 97.769531 18.078125 97.695312 17.132812 97.46875 16.210938 C 96.558594 12.304688 93.316406 10.648438 89.597656 10.152344 C 89.597656 10.152344 89.230469 10.097656 89.230469 10.097656 L 89.046875 10.070312 C 88.984375 10.058594 88.917969 10.054688 88.867188 10.023438 Z M 88.867188 10.023438 " fill-opacity="1" fill-rule="nonzero"/><path fill="#231f20" d="M 102.753906 6.957031 C 103.664062 7.578125 104.234375 8.589844 104.601562 9.609375 C 105.3125 11.691406 105.105469 13.992188 104.445312 16.050781 C 104.109375 17.070312 103.664062 18.050781 103.078125 18.953125 C 103.527344 16.902344 104.023438 14.894531 104.109375 12.820312 C 104.1875 10.792969 103.910156 8.679688 102.753906 6.957031 Z M 102.753906 6.957031 " fill-opacity="1" fill-rule="nonzero"/><path fill="#231f20" d="M 208.695312 45.445312 C 214.609375 46.742188 220.339844 48.835938 225.800781 51.433594 C 235.511719 56.148438 245.03125 63.050781 249.574219 73.144531 C 250.550781 75.367188 251.253906 77.703125 251.625 80.101562 C 251.335938 78.929688 250.996094 77.777344 250.589844 76.640625 C 246.378906 65.195312 235.949219 57.527344 225.441406 52.164062 C 220.0625 49.460938 214.457031 47.191406 208.695312 45.445312 Z M 208.695312 45.445312 " fill-opacity="1" fill-rule="nonzero"/><path fill="#231f20" d="M 292.558594 104.535156 C 292.554688 104.476562 292.503906 104.394531 292.480469 104.34375 C 292.480469 104.34375 292.386719 104.152344 292.386719 104.152344 C 290.910156 101.25 289.566406 98.246094 288.929688 95.027344 C 288.71875 93.875 288.597656 92.699219 288.796875 91.519531 C 288.796875 91.519531 289.128906 89.617188 289.128906 89.617188 L 289.664062 91.480469 C 289.894531 92.277344 290.261719 93.027344 290.773438 93.636719 C 292.238281 95.367188 294.394531 95.132812 295.585938 93.269531 C 296.273438 92.222656 296.558594 90.953125 296.667969 89.714844 C 296.871094 87.097656 296.335938 84.519531 295.644531 81.988281 C 297.109375 85.414062 298.332031 90.296875 296.308594 93.730469 C 295.546875 95.007812 294.109375 95.933594 292.578125 95.699219 C 290.585938 95.429688 289.269531 93.527344 288.804688 91.722656 C 288.804688 91.722656 289.671875 91.683594 289.671875 91.683594 C 289.574219 92.191406 289.546875 92.726562 289.5625 93.265625 C 289.613281 94.917969 289.992188 96.550781 290.429688 98.144531 C 290.945312 100.023438 291.625 101.898438 292.296875 103.730469 C 292.296875 103.730469 292.4375 104.128906 292.4375 104.128906 C 292.460938 104.195312 292.484375 104.261719 292.507812 104.328125 L 292.539062 104.429688 C 292.546875 104.464844 292.5625 104.5 292.558594 104.535156 Z M 292.558594 104.535156 " fill-opacity="1" fill-rule="nonzero"/><path fill="#231f20" d="M 311.445312 86.097656 C 308.503906 85.832031 304.847656 86.199219 302.207031 87.554688 C 300.601562 88.359375 299.285156 89.667969 298.664062 91.351562 C 298.613281 91.492188 298.503906 91.773438 298.457031 91.902344 C 297.945312 93.390625 297.503906 95.003906 297.675781 96.578125 C 297.773438 97.460938 298.171875 98.417969 299.039062 98.707031 C 299.429688 98.839844 299.878906 98.816406 300.273438 98.652344 L 302.890625 97.546875 L 300.757812 99.425781 C 299.722656 100.339844 298.851562 101.484375 298.152344 102.683594 C 296.964844 104.6875 295.382812 108.804688 297.710938 110.492188 C 299.433594 111.667969 302.265625 111.054688 304.167969 110.554688 C 305.097656 110.300781 306.011719 109.996094 306.921875 109.667969 C 305.175781 110.5 303.335938 111.21875 301.417969 111.539062 C 299.386719 111.886719 296.984375 111.652344 296.097656 109.492188 C 294.777344 106.109375 297.59375 100.957031 300.148438 98.730469 C 300.148438 98.730469 300.632812 99.503906 300.632812 99.503906 C 299.390625 100.042969 297.96875 99.554688 297.300781 98.378906 C 296.988281 97.855469 296.835938 97.277344 296.769531 96.683594 C 296.59375 94.933594 297.085938 93.234375 297.683594 91.617188 C 297.746094 91.453125 297.847656 91.207031 297.910156 91.050781 C 298.617188 89.222656 300.171875 87.78125 301.929688 86.992188 C 304.710938 85.722656 308.476562 85.527344 311.445312 86.097656 Z M 311.445312 86.097656 " fill-opacity="1" fill-rule="nonzero"/></svg>